<svg xmlns="http://www.w3.org/2000/svg" width="34.157" height="42.21" viewBox="0 0 34.157 42.21">
  <g id="Ligne2" transform="translate(-969 -1584.604)">
    <g id="Layer_1" data-name="Layer 1" transform="translate(969 1584.604)">
      <path id="Tracé_36" data-name="Tracé 36" d="M34.156,18.344c0,10.131-16.581,23.867-17.09,23.867C16.634,42.211,0,28.475,0,18.344S7.646,0,17.078,0,34.157,8.213,34.157,18.344Z" fill="#4040ea"/>
    </g>
    <circle id="Ellipse_7" data-name="Ellipse 7" cx="15" cy="15" r="15" transform="translate(971 1587)" fill="#fff"/>
    <path id="Ellipse_7_-_Contour" data-name="Ellipse 7 - Contour" d="M15,5A10,10,0,1,0,25,15,10.011,10.011,0,0,0,15,5m0-5A15,15,0,1,1,0,15,15,15,0,0,1,15,0Z" transform="translate(971 1587)" fill="#2248e6"/>
    <text id="_2" data-name="2" transform="translate(980 1609)" fill="#2248e6" font-size="20" font-family="Avenir-Medium, Avenir" font-weight="500"><tspan x="0" y="0">2</tspan></text>
    <path id="_2_-_Contour" data-name="2 - Contour" d="M10.7.5H.42V-2.248l5.839-5.8a6.777,6.777,0,0,0,.54-.568,5.017,5.017,0,0,0,.455-.627,3.083,3.083,0,0,0,.3-.654,2.214,2.214,0,0,0,.106-.685,1.771,1.771,0,0,0-.146-.734,1.556,1.556,0,0,0-.395-.54,1.884,1.884,0,0,0-.617-.354,2.329,2.329,0,0,0-.782-.131,2.057,2.057,0,0,0-1.4.46,2.119,2.119,0,0,0-.692,1.306l-.08.451L.487-10.388l.078-.526a4.956,4.956,0,0,1,.615-1.812,4.462,4.462,0,0,1,1.149-1.294A4.665,4.665,0,0,1,3.9-14.782,6.883,6.883,0,0,1,5.74-15.02a6.361,6.361,0,0,1,1.877.272A4.753,4.753,0,0,1,9.2-13.92a3.972,3.972,0,0,1,1.1,1.394,4.427,4.427,0,0,1,.4,1.926,4.515,4.515,0,0,1-.237,1.473,6.054,6.054,0,0,1-.6,1.254,7.663,7.663,0,0,1-.835,1.091c-.3.326-.616.65-.943.963L4.318-2.18H10.7ZM1.42-.5H9.7v-.68H1.842l5.55-5.36c.312-.3.614-.608.9-.918a6.661,6.661,0,0,0,.725-.949,5.053,5.053,0,0,0,.5-1.046A3.518,3.518,0,0,0,9.7-10.6a3.442,3.442,0,0,0-.3-1.494,2.98,2.98,0,0,0-.822-1.046,3.758,3.758,0,0,0-1.254-.652A5.364,5.364,0,0,0,5.74-14.02a5.885,5.885,0,0,0-1.576.2,3.67,3.67,0,0,0-1.233.6,3.467,3.467,0,0,0-.891,1.006,3.608,3.608,0,0,0-.378.925l1.092.095a2.988,2.988,0,0,1,.922-1.445,3.054,3.054,0,0,1,2.044-.7,3.326,3.326,0,0,1,1.118.189,2.878,2.878,0,0,1,.943.546,2.57,2.57,0,0,1,.645.879A2.761,2.761,0,0,1,8.66-10.58a3.212,3.212,0,0,1-.154.995,4.084,4.084,0,0,1-.4.866,6.02,6.02,0,0,1-.545.753,7.782,7.782,0,0,1-.614.647L1.42-1.832Z" transform="translate(980 1609)" fill="rgba(0,0,0,0)"/>
  </g>
</svg>
