<svg id="MAP" xmlns="http://www.w3.org/2000/svg" width="366.135" height="366.299" viewBox="0 0 366.135 366.299">
  <path id="Path_230" data-name="Path 230" d="M291.183,355.836l24.516,4.789-.99,5.574h4.457l10.69-60.981,2.476,60.981h4.416l-.826-20.561,11.226-.33L348.3,366.2h2.187l-1.156-20.933,16.8-.454v-4.376l-13.827.372-1.073-7.39,14.9.454v-2.188l-15.23-.454L348.841,316.9l9-9.909,8.255,5.243v-2.642l-6.769-4.294,6.769-7.473v-3.262l-17.706,19.57c-.949-5.409-3.3-19.2-4.292-25.02l22.04,3.757v-4.459l-10.979-1.9,2.6-16.391c2.93.619,5.737,1.2,8.379,1.734v-4.5l-6.274-1.28,6.274-7.968v-7.143l-11.061,14.12-14.322-2.973,6.108-42.856,19.233,3.468v-7.432l-2.022-.372,2.022-13.831v-30.14l-2.229,15.276-20.471-4.954c1.032-5.409,3.756-19.735,4.788-25.185l17.913,3.386v-4.459l-11.557-2.188,9.121-49.668,2.435.454V96.14l-5.985-1.115,1.61-11.189,4.375-.908V80.7l-4.045.826,3.55-24.69.5.083V1.758l-1.321,9.124-13.7.826L350.451-.059h-2.187l.66,11.932-11.639.7L336.748-.059h-4.416l.536,12.923-16.138.991L319.166-.059h-4.457l-2.353,13.5L288,6.96l1.279-7.019h-7.429L279.378,13.4,262.621,16.25,260.558-.059h-4.416l2.1,17.01-16.385,2.766L234.845,5.391c4.169-1.2,11.185-3.262,18.779-5.45H237.9L232.9,1.386l-.743-1.445H223.99l1.692,3.468c-2.559.7-5.985,1.651-9.369,2.6-.537-1.486-1.279-3.675-2.146-6.11h-2.311l2.353,6.689c-4.086,1.115-7.718,2.147-9.163,2.56l-10.566-3.3.7-5.9h-2.229l-.578,5.243-13.5-4.17.371-1.073h-4.664l-1.775,4.831L161.254-.059H157.21l-3.591,9.207L137.068,3.409q1.052-1.734,1.981-3.468h-5.118a91.351,91.351,0,0,1-8.048,11.932L123.9-.059h-4.457l.537,3.3-11.02,6.565-5.82-9.868h-2.559L114.244,23.1c-.33.206-.66.454-.949.661-4.375,2.849-10.071,4.954-16.592,6.523L98.891-.059H96.7L94.474,30.824c-2.394.537-4.87.95-7.429,1.362L84.651-.059H80.235l.784,10.9L54.646,7.621,54.481-.059H50.064l.165,7.184-6.067-.743L37.641-.059H34.5l6.108,5.987-22.2-2.684.413-3.3H16.592L16.22,2.955,7.388,1.882l.289-1.94H.248L0,1.758v55.16l18.986,3.468,3.261,15.689L0,80.7v2.229l6.645-1.4L8.791,97.792,0,96.14v7.473l9.658,1.817L2.311,155.346,0,154.933v4.459l1.651.33L0,170.953v30.14l5.985-40.544,20.678,3.881-5.489,54.664L0,215.295v7.432l19.44,3.468L0,250.967v7.1l19.275-24.607-5.283,36.787L0,267.358v4.5c5.654,1.156,10.4,2.147,13.373,2.766l-2.229,15.689L0,288.414v4.459l1.321.248L0,294.525v3.262l3.88-4.294,6.645,1.156L7.677,314.467,0,309.595v2.6l7.347,4.665L5.2,331.807,0,331.642v2.188L4.87,334l-.908,6.276L0,340.395v4.376l3.343-.083-3.1,21.469H7.636l3.013-21.139,8.378,1.115-2.476,20.024h2.229l1.692-13.707L34.5,366.158h3.137l-16.8-16.474.413-3.262,28.437,3.8.371,15.937h4.416L54.109,350.8l25.259,3.385.867,11.973h4.416l-.454-6.152,13.125-2.229L96.7,366.2h2.187l.165-2.518,1.486,2.518H103.1l-3.756-6.4.165-2.395,17.954-3.055,1.981,11.849H123.9l-6.191-37.158L149,331.436c-3.426,10.487-8.461,23.368-15.065,34.764h5.118a163.873,163.873,0,0,0,7.223-14.863L160.8,356.91l-3.632,9.29h4.045l-1.445-.619,7.305-18.7,13.373,3.138-5.861,16.143h4.664l11.144-30.635,6.067-.743L192.952,366.2h2.229l1.4-12.551,9.947-2.725L211.9,366.2h2.311c-2.064-5.821-4.623-13.129-5.572-15.854l6.686-1.817L223.99,366.2h8.172l-3.715-7.6,29.139-9.042-1.61,11.4-18.078,5.2h15.725c.826-.248,1.61-.454,2.435-.7l.083.7h4.416l-.248-1.94c8.956-2.6,17.789-5.161,23.072-6.73l-1.61,8.67H289.2Zm-3.962-18.992-22.948-3.138,2.311-16.226,23.443,4Zm-49.074-28.653,1.568-8.918,24.392,4.583-1.238,8.546Zm24.1,8.546-.991,6.936-16.138-2.312,1.61-7.225Zm-81.432-8.67L170,307.778l1.651-9.331,9.163,4.418a17.378,17.378,0,0,0-.206,2.56A11.247,11.247,0,0,0,180.818,308.067Zm3.343,7.432a14.664,14.664,0,0,0,1.94,1.982l-8.255,10.858-7.8-13.253Zm-.578-19.4L162.74,286.061l22.659-8.3,3.426,13.666A16.151,16.151,0,0,0,183.583,296.094ZM39,272.849l2.683-6.028,33.349-7.968-4.746,16.639Zm30.212,6.978-2.229,11.437L58.856,289.2l.578-10.2ZM22.783,37.554c7.388.537,16.014,1.032,25.012,1.156L47.712,40.9l-26,8.051Zm-9-5.2,2.476-13.914,23.9,3.014c-.248,2.6-.908,9.124-1.238,12.551C29.345,33.632,20.6,33.012,13.785,32.352ZM70.453,61.666,73.3,86.975c-6.521.743-26.126,3.014-33.1,3.84l3.054-26.548ZM47.588,43.251l-.7,16.267-5.531.537-5.118-.95L34.752,47.215Zm25.92,45.911,1.032,9.124L38.8,102.664l1.114-9.62Zm150.565-1.775-4.045,14.327-16.674,6.441c-2.435-6.812-4.375-13.5-5.448-17.547ZM201.166,73.556l12.795-1.569,1.4,9.083L202.2,82.681Zm63.6,93.185-15.477-3.633,7.718-24.153,13.29,2.477C269.349,145.891,267,156.667,264.768,166.741Zm7.718-24.937,16.344,3.055-21.38,19.983ZM126.5,146.841l25.3-2.395,2.765,10.982-30.295.908Zm0-19.116,23.154,8.092,1.073,4.294L128.4,142.217Zm115.111,35.342-4.127,12.923-18.036-7.143,4.829-12.1Zm-16.551-8.34,4.169-10.487c6.191,3.551,12.217,6.689,15.684,8.423l-2.641,8.3Zm-11.8,17.795-8.461-7.184,10.194-14.451,5.324,3.881Zm-.867,2.147-.413,1.032-21.3,1.817-10.69-14.244L190.6,156.13Zm-23.856,3.716-18,10.363-4.127-16.308,11.763-7.886C180.116,167.154,186.39,175.494,188.536,178.384Zm-9.906-16.845c-.908-1.156-2.642-3.344-3.88-4.913l8.874-6.4,5.2,4.418Zm-1.816,1.239-10.979,7.39-1.527-5.987,8.667-6.234Zm-11.845,33.773-19.357-5.739,14.528-13.336Zm-21.834-6.482-24.97-7.432,5.613-24.112,31.368-.908,4.416,17.464Zm-27.158-46.654-3.426-29.025,9.782-1.445,3.88,29.479Zm-.206,4.418,8.42-.784-4.045,17.382-8.337-2.684Zm3.88,18.744-3.591,15.441-9.2-2.725,4.375-15.4Zm-2.394,20.4-11.887,32.369-8.832-3.675,9.121-32.163Zm2.1.619,11.433,3.386-4.911,14.7c-3.261-.991-9.328-2.89-11.8-3.675Zm9.988,21.552c2.229.785,6.108,2.147,10.69,3.757l-7.223,16.556-9.823-1.156Zm.66-2.106,4.953-14.822,16.963,5.037-4.086,16.019Zm24.021-9.124,12.134,3.633,5.035,19.942-21.3-7.473Zm17.046-6.936,9.369-5.409,4.581,16.35-11.969-3.055Zm11.35-6.565,8.09-4.665,20.6-1.775-11.061,27.7L187.545,202.5Zm27.24,9.042,9.864,3.3-3.549,13.088-11.639-2.973Zm.784-2.064,8.172-20.478,18.16,7.184-6.4,19.942Zm27.116,8.257,18.408,3.3L240.54,228.713l-9.493-8.629Zm2.27-7.019,8.791-27.456,15.684,3.716c-1.568,7.225-3.013,13.749-3.673,16.886l-13.7,8.134Zm26.374-22.13,6.562,8.01-9.534,5.656Zm-19.935-22.047c-7.305-3.716-23.9-12.469-31.533-19.033a12.669,12.669,0,0,1-1.073-1.032l17.665-15.152,19.811,20.024Zm-26.621-30.965-5.778-11.065,6.81-2.642,7.47,6.358Zm-1.734,1.486-6.893,5.945a78.2,78.2,0,0,1-6.934-14.657l7.718-2.973Zm-6.026,13.79a98.711,98.711,0,0,0,13.5,9.248l-4.21,10.611-20.348-14.74,9.41-6.771A20.758,20.758,0,0,0,211.9,132.762Zm1.321,16.8-10.112,14.327-17.624-14.946,13.455-9.7Zm-26.828-6.688-3.921-13.047,9.74-4.665,4.086,10.611Zm-4.581-15.194-3.137-10.4,6.893-9.372,5.861,15.152Zm.825,17.877-19.44,14-7.016-27.869,21.091-4.046ZM155.6,129.583,147.345,96.76,167.2,94.324l9.41,31.172Zm-6.6,3.675-22.824-7.968-1.651-12.675,18.573-2.766ZM112.3,112.2l-1.321-10.982L140,97.668l2.559,10.074Zm-2.6-18.208-2.229-9.5,31,1.445,1.156,4.376Zm1.568,46.944L90.43,116.99l-.867-13.129,17.046-2.106ZM88.737,96.553,87.252,87.14c5.9-.908,12.547-1.94,15.808-2.436l2.311,9.826Zm-1.362,7.556.825,12.345-9.245.908.33-12.221ZM88.9,118.559l22.04,25.309-32.771,3.1.7-27.456C81.845,119.261,87.169,118.724,88.9,118.559Zm22.164,29.727L92.989,211.909l-8.874-5,18.862-57.885ZM95.3,219.919l22.618,9.455-2.518,7.556L93.319,226.814Zm12.052.289,5.9-16.1,11.887,3.675-5.82,17.423Zm14.858,10.157,9.988,1.2-2.27,14.822-10.607-7.267Zm12.3.537,7.594-17.3c5.985,2.106,12.836,4.5,18.738,6.565l-6.645,33.9-8.42,3.22-13.868-9.537Zm33.431,22.584,3.715,13.336-15.643,6.523-7.14-12.551Zm-11.309-.372,6.315-32.245c3.591,1.239,6.728,2.353,8.956,3.138l5.365,21.222ZM174.3,203.693l24.434,6.234-6.315,8.34-13.5,3.84Zm26.786,6.854,23.072,5.9-25.713,13.088-4.086-10.115Zm17-.206,3.508-12.923,8.131,2.725-3.921,12.18ZM230.3,222.4l20.637,18.7-1.527,2.931c-10.442-2.023-19.6-3.757-24.516-4.707Zm11.887,7.8,16.1-26.837,11.144,2.023-17.5,33.69Zm29.552-24.442,3.549.661-6.934,41.246c-5.572-1.073-11.268-2.188-16.716-3.22Zm1.238,27.786,18.078,4.335-2.187,13.749c-5.448-1.032-11.763-2.271-18.325-3.509Zm2.724,20.024,12.258,2.353-5.448,22.708L272.4,276.565Zm14.446,2.766,11.474,2.188-4.251,23.08-12.671-2.56Zm.867-4.294,2.187-13.831,11.969.95-2.765,15.07C299.726,253.692,295.764,252.949,291.017,252.04Zm2.518-16.019,1.486-9.248,12.134,1.693-1.568,8.546Zm1.816-11.437,2.229-14.161L310,212.653l-2.518,13.625Zm-3.962,11.106L273.352,231.4l4.127-24.566,18,3.22Zm-37.848-40.626,22.04-13.088,16.3,19.983ZM277.48,180.82l28.644-17.052,6.4,7.8-28.685,16.969Zm-2.807-3.427-7.553-9.248,24.145-22.5,12.052,14.74Zm17.459-47.934-17.17-2.271c.537-3.262,1.032-6.276,1.279-7.845l16.963,3.427Zm-.33,2.188-1.445,9.042-17.046-3.22c.33-1.982.825-5.037,1.321-8.134Zm-20.678,5.45L258.37,134.7l5.7-17.795,10.029,2.023Zm-18.449-8.546-18-18.208,14.074-12.1,11.68,5.987Zm-22.824-19.859-7.718-6.565L226.384,87.1l26.25-3.22a16.051,16.051,0,0,0,1.61,3.881ZM219.739,80.534,216.272,58.2l14.9-2.312,3.508,22.832ZM207.6,127.6l-9.452,6.812-11.02-28.571L194.686,95.6C197.2,104.439,201.867,118.89,207.6,127.6Zm-29.717-12.923-6.274-20.85,21.875-2.684c.124.537.289,1.115.454,1.734Zm-3.467-28.612-7.058.867-12.01-19.281,19.11-2.973Zm-9.452,1.156-18.325,2.229,7.264-19.983Zm-21.834-.95L133.312,48.33l20.967,7.39Zm-5.2-2.56-17.046-.784-4.54-25.639,14.4-1.362ZM118.619,82.8l-11.639-.537-5.489-23.575,12.63-1.2Zm-16.055-.248L86.88,84.951l-1.486-9.413,15.065-2.023ZM86.55,96.842l-7.636.95-1.032-9.207c1.692-.248,4.292-.661,7.182-1.115Zm-8.5,54.582,22.535-2.147L89.109,184.454l-11.8-4.831Zm10.4,35.135-6.4,19.653-5.366-.867.619-23.327Zm-7.1,21.758L76.19,224.172l.413-16.639C78.171,207.781,80.111,208.111,81.35,208.317Zm2.064.743,8.956,5.037L82.877,247.54l-7.223-3.468.33-12.18Zm9.328,19.9L114.7,239.035l-6.851,20.52L86.921,249.481Zm25.837,12.3L143.3,258.234,122,266.367l-10.194-4.913Zm2.765,32.906,19.522,9.414-5.077,9.5-17.335-3.757Zm6.108-5.161,19.357-7.39,7.182,12.593-8.461,3.509Zm44.823-.041,2.848,10.239-15.106,5.532L148.171,279ZM170,252.7l8.3-3.179,6.562,26.052-7.718,2.808Zm9.493-28.447,12.96-3.675,12.423,30.676-17.211,5.367Zm19.77,7.308,24.392-12.427-13,40.585Zm24.269,11.973,20.884,4-4,22.584-23.856-4.831Zm20.43,31.791,23.526,4.748-1.816,12.84-22.742-11.767Zm.743-4.335,4-22.625,22.7,4.376-3.3,23Zm27.117,9.95,24.764,5-2.435,13.294-24.269-4.789ZM299.4,311,310,312.361l-3.3,16.886-10.442-1.321Zm.413-2.147,4.87-26.506,10.855,1.858-5.077,26.011Zm5.654-30.841,3.3-18.043c3.426.7,9.08,1.9,15.766,3.262L320.61,280.57Zm4.127-22.336,4.086-22.3,26.208,3.675-3.467,24.194Zm3.261-49.957-17.665-3.179L285.2,190.316l28.685-16.969,4.251,5.2Zm9.369-25.1,18.2,4.418c-1.032,5.12-3.632,18.373-4.911,24.772l-18.325-3.3Zm-2.972-7.679L297.7,146.552l25.755,4.831Zm-24.6-31.419,4.334-27,30.749,4.459-5.489,28.117Zm16.509-29.685,2.518-18.042,20.224,3.8-3.343,17.052Zm1.486-25.722-8.3-1.569,2.641-14.946,8.378.908Zm-1.114,7.267c-.7,5.037-1.94,14-2.518,18.125l-9.286-1.362L302.7,91.681Zm-11.515-9.62-15.849-2.973c0-.33.041-.619.041-.95a16.579,16.579,0,0,0-1.321-6.4l14.941-9,4.086,8.794ZM298.323,90.9l-4.746,29.685-28.809-5.78,6.15-19.2a16.039,16.039,0,0,0,11.1-7.762ZM268.152,88.5a8.712,8.712,0,1,1,8.709-8.712A8.712,8.712,0,0,1,268.152,88.5Zm-4.788,6.606-2.27,7.019-10.566-5.409,6.4-5.491A16.346,16.346,0,0,0,263.364,95.108ZM252.51,76.529l-15.6,1.9-3.55-22.873,16.674-2.6,7.347,15.028A16.057,16.057,0,0,0,252.51,76.529ZM212.681,54.316l-1.114-8.753,31.863-6.028,4.54,9.29Zm-.743,4.583L213.63,69.84l-12.712,1.528-1.2-10.57ZM200.051,82.97l-23.4,2.849.041-21.469,20.884-3.262ZM177.392,59.808,184.9,32.888l9.245,3.509-5.324,21.634ZM175,60.179l-18.779,2.931,13.166-36.085L182.84,32.1Zm-19.976-6.523-10.772-3.8,3.8-13.583L159.6,41.063Zm-12.836-4.542-9.534-3.386L128.03,27.893l18,7.514ZM129.6,51.591l-30.047,2.89-1.362-9.7,28.148-5.615ZM99.922,71.368l-14.9,1.982L82.959,60.468l14.115-1.362ZM83.207,75.827l1.527,9.455-7.058,1.073L76.6,76.694Zm-6.893-1.28L74.828,61.253l5.943-.578,2.064,12.964Zm-1.486,31.089-.33,12.1c-3.508.33-10.525.95-13.373,1.2l.454-11.684Zm-18.16,71.757L56.3,187.3c-2.476-.083-8.378-.289-10.855-.413l.454-10.281Zm-9.947-5.078,10.855-17.547-.7,18.249Zm9.493,17.175-.454,11.767c-3.591-.7-7.305-1.445-10.855-2.147l.454-10.033Zm-.619,14-1.816,14.74-11.474-2.973,2.311-13.914Zm-.619,23,6.4,1.61-.66,8.712-6.645-3.179Zm.289-2.188,2.518-20.4,5.366,1.073L61.58,225.906Zm9.988-18.91,6.975,1.362-.908,35.177-8.461-4.087Zm-7.305-3.675.454-12.1c2.848.165,10.483.619,14.239.826l-.371,14.079C69.38,203.941,63.973,202.868,57.948,201.711Zm.537-14.285.371-9.868,14.074.991-.248,9.661Zm.578-14.244.825-21.511,13.785-.991-.619,23.492Zm.908-23.74.33-8.629,13.62.372-.206,7.267Zm.5-13.047.578-15.276,13.373-1.2L74,136.767ZM39.5,109.972l19.935-2.436-.454,11.519-20.389-.206ZM58.9,121.2l-.578,15.111L36.9,135.776l1.486-14.74Zm-.784,19.529-.371,9.537L50.725,161.58,36.155,143.125l.289-3.014ZM49.528,163.6l-5.283,8.505-10.9-.784,2.518-25.061Zm-5.82,12.882L42.718,198.7c-4.788-.95-9.08-1.775-11.887-2.353L32.895,175.7ZM29.634,134.744,20.8,133.505l4.375-25.144,6.975,1.321Zm.949,63.83,11.887,2.353-4.21,25.1-9.947-4.789ZM41.975,217.4l11.556,3.014-1.486,12.221-11.68-5.615Zm11.1,23.864L76.768,252.7,75.7,256.458,42.8,264.3Zm25.713,12.386,11.639,5.615-5.118,17.506L72.476,275.7Zm15.643,7.556,10.029,4.831-7.347,30.676-12.63-1.321ZM111.85,300.47l-1.073,5.615-29.221-.826,2.27-7.721ZM99.3,296.92l7.182-29.933,10.772,5.2-4.994,26.093Zm18.738-5.409,31.12,6.73-1.114,8.918-32.812-.95Zm19.976,2.064,4.829-9,10.814,5.2-3.838,6.358Zm13.414,4.17,4.251-6.978,13.868,6.689L167.734,307.7l-17.5-.5Zm45.153-1.032a8.712,8.712,0,1,1-8.709,8.712A8.712,8.712,0,0,1,196.584,296.713Zm4.375-6.689a15.348,15.348,0,0,0-4.375-.619h-.66l-7.759-30.676,17.5-5.45,3.921,9.7ZM215.2,269.5l24.434,4.954-.371,2.147-29.675,19.488a17.109,17.109,0,0,0-2.146-2.436Zm23.526,10.074-4.912,27.869-21.3-3.633a15.45,15.45,0,0,0-1.775-5.821Zm5.861,34.145-1.651,7.308-19.564-2.807,3.756-7.432Zm-4.5-16.639,2.435-13.666,22.824,11.808-.908,6.482Zm50.725,20.066L267.2,313.1l2.353-16.515,24.145,4.748Zm11.226,36.291-10.071-1.982,3.921-21.387,10.4,1.321Zm14.4,2.849-10.112-1.982,6.4-32.906,9.451,2.106Zm6.15-34.97-9.41-2.064,6.686-34.31,8.833,1.528Zm27.447,19.487-14.322.413-.371-9.455,11.6-12.8C347.644,323.963,349.336,335.812,350.038,340.808Zm-3.508-24.648-11.309,12.469-1.692-41.37,8.255,1.4Zm6.893-46.9-2.642,16.515L322.8,280.983l3.88-17.3C334.973,265.418,344.549,267.4,353.423,269.257Zm-13.249-34.392-26.126-3.633,3.178-17.258,25.3,4.542Zm8.626-22.708-11.144-1.982,2.27-11.519,10.937,2.188Zm10.937,1.982-8.791-1.569,2.1-11.313,8.337,1.693Zm3.467-23.575-1.486,10.2-21.338-4.294,2.146-10.941ZM341.247,180.7l-18.2-4.418,4.705-24.112,18.284,3.427Zm11.144-28.323-23.815-4.459,3.962-20.4,23.526,4.748ZM364.484,13.112l-2.518,17.63-9.823-.165-.908-16.639ZM352.019,34.994l9.286.165-4.994,34.805-7.512-.041Zm-3.384,37.117,7.388.041-3.1,21.552-6.191-1.156Zm-4.086,20.024-4.127-.784-2.311-56.6,11.68.206Zm4.457-78.074.908,16.474-11.969-.206L337.326,14.8ZM338.234,98.37l23.278,4.376-5.035,27.332-23.526-4.748Zm-2.229-7.845-21.173-3.964c.825-4.789,2.229-12.964,2.724-15.813l17.748,1.9Zm-.826-20.148L307.32,67.4l2.064-11.891,25.135-.248Zm-18.82-54.293,16.592-1.032.66,16.35-19.935-.165Zm-3.054,17.341,20.389.165.784,19.529-24.681.248ZM287.592,9.148l24.351,6.482L309.3,30.576l-24.392-7.184Zm21.38,23.616-5.778,32.865L284.661,25.581Zm-25.755.165,13.661,29.479-15.023,9.042a16.272,16.272,0,0,0-4.788-5Zm-4.292-17.217-8.874,48.223c-.537-.041-1.032-.083-1.568-.124L262.869,18.4ZM258.535,19.14l5.613,45.168a.971.971,0,0,1-.33.083L242.893,21.782ZM227.7,7.456l14.735,30.057-14.528,2.766L217.8,10.222ZM215.653,10.8c2.1,6.193,8.378,24.937,10.071,29.851l-14.446,2.725-3.838-30.3Zm-7.347,44.219L191.136,57.7l5.035-20.478,10.36,3.922Zm-2.064-16.35-20.637-7.845,4.87-10.652,14.074,5.12ZM193.613,10.18l9.41,2.931,1.238,9.7-13-4.707ZM177.351,5.143,191.508,9.52l-2.641,8.835L183.583,30l-13.455-5.12ZM158.984,1.386l13.084,5.45-2.807,7.721L155.683,9.85ZM154.279,14.02l13.455,4.665L160.346,39l-11.68-4.872Zm-19.6-6.771,17.541,6.069L146.6,33.3l-19.316-8.01-1.651-6.358A85.342,85.342,0,0,0,134.674,7.249Zm-24.6,4.459,10.318-6.152,1.775,10.652a55.269,55.269,0,0,1-6.108,5.615Zm5.613,15.772a47.922,47.922,0,0,0,6.356-4.954L125.8,37.058,97.9,42.632,96.827,34.87C104.215,33.095,110.695,30.7,115.689,27.48Zm-21.008,7.8,2.724,19.4L68.183,57.5,66.739,38.545A187.854,187.854,0,0,0,94.681,35.283ZM81.391,15.341,82.67,32.806a236.259,236.259,0,0,1-27.364,1.528L54.77,12.121ZM64.51,38.586,66,57.661l-16.881,1.61.867-20.52C54.77,38.792,59.64,38.751,64.51,38.586ZM43.585,10.717l6.769.826.206,9-8.007-.991C42.8,17.571,43.3,13.318,43.585,10.717Zm7.058,12.056.289,11.519c-3.3-.041-6.6-.083-9.782-.206l1.2-12.386ZM6.769,6.217l34.669,4.211-1.032,8.835L5.531,14.887ZM5.2,17.075l8.874,1.115L11.6,32.145c-3.508-.33-6.356-.661-8.42-.908Zm13.579,38.81L.124,52.459,2.559,35.613c3.756.454,10.112,1.156,18.036,1.775ZM21.421,51.3l11.185-3.468,1.362,10.817L20.926,56.257ZM21.3,60.84l17.541,3.22-4.458,38.6-4.623-.867ZM8.832,81.112l13.827-2.89L27.447,101.3,11.061,98.2ZM6.6,156.172l7.347-49.916,9.08,1.693-8.667,49.668Zm9.947,1.858,3.921-22.378,9,1.28-2.311,23.08Zm10.772,70.807,21.792,10.487L34.381,272.436l-13.125-1.115ZM20.637,275.7,55.1,278.629l-.578,10.2-36.155,2.849Zm33.72,15.359-.784,13.418-9-.248V291.841Zm-36.32,2.849,24.351-1.941V304.1l-25.713-.7Zm13,49.421-19.729-2.642,2.972-20.726,18.655,2.56ZM14.611,317.77l1.032-7.06,18.367.537-.825,9.124Zm25.3,26.754-6.686-.908,1.9-20.767,6.893.95Zm2.311-22.914-6.934-.95.867-9.331,7.1.207Zm9.823,24.525L44.286,345.1l2.1-20.891,7.14.413ZM46.6,322.022l1.073-10.4,28.644.826.825,11.313Zm7.636,24.4,1.527-21.676L77.3,325.986l1.733,23.781Zm22.783-41.287L57.989,304.6l.743-13.129,20.719,5.285ZM69.133,291.8l2.311-11.808,12.63,1.073-3.962,13.542Zm11.6,20.767,29.964.867,1.279,7.721-30.418,2.6ZM81.68,325.9l30.625-2.6,1.857,11.189-31.615,3.427Zm2.353,31.915-1.156-15.483,31.987-3.468,2.229,13.294ZM117.34,326.77l-2.187-13.253,38.714,1.115c-.825,3.344-2.229,8.464-4.169,14.616ZM161.626,354.8l-14.487-5.533c.908-2.188,1.775-4.335,2.559-6.482l15.23,3.592Zm-10.4-16.143a242.459,242.459,0,0,0,7.14-23.905l9.08.248L176.36,330.2l-9.245,12.18Zm30.749,7.225-12.547-2.931,8.585-11.313,7.924,3.262Zm4.746-13.047-7.305-3.014,8.378-11.024a14.709,14.709,0,0,0,3.426,1.693Zm4.54.413,4.292-11.808a8.28,8.28,0,0,0,1.032.041,15.955,15.955,0,0,0,5.077-.826l5.2,10.569Zm5.572,18.042,1.857-16.8,9.163-1.2,6.48,13.212Zm17.83-20.767-6.769-13.79a15.908,15.908,0,0,0,4.457-8.505l12.547,2.147Zm12.795,26.052-3.838-7.8,12.795-3.675,2.064,8.01Zm30.46-9.455-17.335,5.367-2.064-7.968,20.6-5.9Zm1.9-13.253-38.136,10.9L215.9,333l6.439-12.716,38.632,5.574Zm.743,25.722,3.054-21.511,10.731,1.486-2.518,16.763Zm23.732-6.936-10.112,2.931,2.394-15.813,9.864,1.363Z" transform="translate(0 0.1)" fill="#1f1f63"/>
</svg>
