<?xml version="1.0" encoding="UTF-8"?>
<svg id="Calque_2" data-name="Calque 2" xmlns="http://www.w3.org/2000/svg" viewBox="0 0 384 383.47">
  <g id="Calque_1-2" data-name="Calque 1">
    <path d="m384,203.62c-.97,7.02-1.65,14.09-2.95,21.04-10.76,57.25-41.12,101.2-90.69,131.48-35.69,21.8-74.91,30.86-116.38,26.08-71.51-8.25-124.75-44.86-154.75-110.24C-13.51,200.64-4.03,132.2,44.51,70.56,74.87,32.01,115.65,9.69,164.27,2.15c5.39-.84,10.82-1.44,16.24-2.15,7.98,0,15.96,0,23.94,0,6.52.85,13.08,1.48,19.56,2.59,35.83,6.14,67.57,21.09,94.77,45.22,33.49,29.7,54.41,66.64,62.28,110.81,1.24,6.97,1.97,14.02,2.94,21.04v23.96Zm-95.61,134.71c57.52-36.34,94.73-112.14,73.81-191.52C341.02,66.47,265.08,9.55,178.14,16.55,97.85,23.02,29.65,84.68,18.41,168.71c-10.22,76.46,31.48,141.36,78.09,169.26-1.5-54.18,43.03-99.29,97.63-98.41,51.54.83,95.25,43.46,94.25,98.77Zm-92.53,29.04c3.69-.27,10.79-.55,17.84-1.37,19.7-2.3,38.46-7.93,56.22-16.79,1.07-.53,2.32-2.1,2.32-3.18-.01-6.97.18-14.01-.67-20.91-4.14-33.78-29.73-61.06-63.46-68.09-32.77-6.82-67.2,8.69-84.41,37.83-9.15,15.49-11.7,32.34-11.16,49.97.08,2.54.92,3.7,3.09,4.75,24.27,11.78,49.9,17.56,80.23,17.77Z"/>
    <path d="m192.59,79.92c35.28.07,63.65,28.51,63.65,63.82,0,35.43-28.68,63.98-64.06,63.79-35.28-.19-63.57-28.73-63.46-64.02.12-35.3,28.6-63.66,63.87-63.59Zm.05,15.9c-26.33-.06-47.95,21.38-48.04,47.65-.09,26.36,21.3,48.04,47.53,48.17,26.52.13,48.19-21.37,48.23-47.84.04-26.32-21.44-47.92-47.71-47.98Z"/>
  </g>
</svg>