<?xml version="1.0" encoding="UTF-8"?>
<svg id="Calque_2" data-name="Calque 2" xmlns="http://www.w3.org/2000/svg" viewBox="0 0 383.57 383.26">
  <g id="Calque_1-2" data-name="Calque 1">
    <path d="m0,36.68c.59-2.27,1.11-4.56,1.78-6.8C6.9,12.72,22.78.54,40.68.06c4.23-.11,8.46-.02,12.95-.02v11.94c-3.71,0-7.41-.03-11.12,0-17.49.15-30.52,13.07-30.53,30.58-.04,99.43-.04,198.85,0,298.28,0,16.96,12.88,30.32,29.55,30.38,43.3.15,86.6.06,129.89.05.6,0,1.21-.07,2.03-.12v-131.62c-2.83,0-5.54,0-8.25,0-10.73,0-21.46.03-32.19-.01-4.97-.02-7.21-2.15-7.22-6.97-.04-19.34-.04-38.67,0-58.01.01-4.63,2.27-6.83,6.96-6.84,13.46-.05,26.93-.02,40.8-.02v-29.72h11.77c.1.67.32,1.48.32,2.3.02,10.73.05,21.46,0,32.19-.02,5.06-2.21,7.19-7.39,7.2-13.34.03-26.67,0-40.26,0v47.91h4.04c11.85,0,23.71,0,35.56,0,6.13,0,8.06,1.92,8.06,8.04,0,43.54,0,87.08,0,130.61,0,1.49,0,2.98,0,4.77h47.83v-23.45h11.91v23.56c1.6.08,2.8.18,4,.19,30.07,0,60.14.02,90.21,0,18.98-.01,31.68-12.71,31.73-31.65,0-3.23,0-6.47,0-9.98h11.52c4.43,30.09-13.06,49.75-35.28,53.08-.34.05-.63.35-.95.54H36.69c-.56-.22-1.1-.54-1.69-.66-16.14-3.13-27.01-12.48-32.71-27.84C1.31,352.12.75,349.32,0,346.58c0-103.3,0-206.6,0-309.9Z"/>
    <path d="m194.32,104.66c-3.31-1.92-6.53-3.78-10.06-5.83,4.18-7.64,9.62-14.03,16.02-19.57,14.29-12.37,30.95-19.05,49.85-19.28,24.08-.29,48.16-.1,72.23-.08,4.86,0,7.04,2.22,7.05,7.15.03,19.08.03,38.17,0,57.25,0,5.34-2.13,7.43-7.53,7.44-20.83.02-41.67,0-62.5.01-9.21,0-13.8,4.59-13.81,13.78-.01,7.22,0,14.43,0,22.15,1.54,0,2.86,0,4.18,0,23.83,0,47.66,0,71.49,0,6.81,0,8.93,2.62,7.58,9.36-3.75,18.81-7.5,37.62-11.29,56.42-.93,4.61-2.73,6.06-7.47,6.07-19.96.02-39.92,0-59.88,0h-4.48v95.59h-12.1v-3.8c0-31.81,0-63.61,0-95.42,0-6.57,1.81-8.35,8.49-8.35,20.09,0,40.17,0,60.26,0h4.21c3.21-16.06,6.36-31.78,9.58-47.91-1.67,0-3.02,0-4.37,0-23.33,0-46.66,0-69.99,0-6.32,0-8.17-1.89-8.18-8.29,0-8.86-.03-17.71,0-26.57.06-14.75,10.22-24.98,24.91-25.01,19.45-.04,38.91-.01,58.65-.01v-47.91h-3.91c-19.84,0-39.67,0-59.51,0-24.99.01-44.45,10.35-58.23,31.26-.33.51-.75.97-1.19,1.54Z"/>
    <path d="m89.94,11.98V0c1.57,0,3.13,0,4.68,0,81.22,0,162.44,0,243.66,0,19.01,0,31.15,8.14,38.48,25.76,4.62,11.12,6.44,22.84,6.46,34.72.15,85.07.1,170.14.11,255.21,0,.37-.07.74-.13,1.41h-11.83v-4.63c0-81.83,0-163.65,0-245.48,0-11.39-.71-22.73-4.6-33.53-1.54-4.28-3.71-8.47-6.33-12.18-4.36-6.17-10.75-9.12-18.32-9.25-5.36-.09-10.73-.03-16.09-.03-77.1,0-154.21,0-231.31,0h-4.77Z"/>
    <path d="m186.43,126.68c-3.91-.66-7.53-1.27-11.74-1.99,1.08-4.31,2.08-8.31,3.24-12.95,3.95,1.39,7.49,2.63,11.29,3.96-.92,3.6-1.79,7.02-2.79,10.97Z"/>
    <path d="m77.7.2v11.51h-11.58V.2h11.58Z"/>
  </g>
</svg>