<?xml version="1.0" encoding="UTF-8"?>
<svg id="Calque_2" data-name="Calque 2" xmlns="http://www.w3.org/2000/svg" viewBox="0 0 383.22 383.29">
  <g id="Calque_1-2" data-name="Calque 1">
    <path d="m179.61,383.29c-7.01-.98-14.06-1.72-21.03-2.97-46.95-8.39-85.49-31.32-115.69-68.06C20.21,284.67,6.23,252.96,1.75,217.51c-7.1-56.13,7.38-106.35,43.85-149.7C73.65,34.46,109.24,12.63,152.04,4.24c68.15-13.34,127.45,4.82,176.63,53.86,29.8,29.72,46.91,66.19,52.86,107.86.65,4.55,1.13,9.12,1.69,13.68v23.96c-.21.96-.55,1.91-.62,2.89-2.27,29.97-10.95,57.99-26.73,83.52-30.46,49.29-74.21,79.63-131.29,90.35-6.94,1.3-14.01,1.97-21.02,2.94h-23.96Zm187.7-191.67c0-96.7-79.04-175.76-175.72-175.76-96.67,0-175.72,79.06-175.73,175.75,0,96.67,79.06,175.77,175.72,175.77,96.66,0,175.73-79.08,175.73-175.77Z"/>
    <path d="m173.38,286.69c-3.82-3.8-7.35-7.31-11.18-11.12.92-.96,1.8-1.94,2.73-2.87,24.25-24.26,48.51-48.52,72.77-72.78,6.35-6.35,6.33-10.25-.11-16.69-24.25-24.27-48.51-48.53-72.75-72.79-.87-.87-1.69-1.79-2.54-2.7,3.8-3.66,7.45-7.18,11.34-10.93.63.6,1.62,1.48,2.55,2.41,24.35,24.35,48.69,48.69,73.03,73.05,12.3,12.3,12.3,26.42,0,38.71-24.34,24.35-48.7,48.69-73.05,73.03-.88.88-1.79,1.72-2.79,2.68Z"/>
  </g>
</svg>