<?xml version="1.0" encoding="UTF-8"?>
<svg id="Calque_2" data-name="Calque 2" xmlns="http://www.w3.org/2000/svg" viewBox="0 0 381.23 381.7">
  <g id="Calque_1-2" data-name="Calque 1">
    <path d="m102.78,381.7c-5.7-1.2-11.47-2.13-17.08-3.65-14.35-3.88-26.99-10.98-37.58-21.42-15.81-15.58-31.45-31.35-47.16-47.05-.44-.44-.82-.93-.96-1.09,30.93-31.08,61.78-62.07,93.59-94.03.71,1.18,1.22,2.57,2.17,3.52,16.45,16.54,33.01,32.97,49.4,49.57,2.25,2.28,3.92,2.77,7,1.45,54.72-23.5,92.83-63.39,116.66-117.53,1-2.27.46-3.49-1.16-5.1-16.82-16.7-33.55-33.49-50.34-50.22-.95-.95-2.26-1.55-3.26-2.22,31.7-31.7,62.65-62.65,93.94-93.94,3.43,3.53,6.96,7.22,10.56,10.84,12.48,12.57,25.16,24.94,37.42,37.72,14.57,15.19,22.62,33.5,24.62,54.46.1,1.08.42,2.14.63,3.22v12.73c-.2.95-.51,1.9-.57,2.86-1.69,25.36-9.04,49.21-20.03,71.9-29.84,61.57-74.71,109.93-131.52,147.46-26.38,17.43-54.72,30.68-85.92,37.07-7.17,1.47-14.47,2.32-21.71,3.46h-18.71ZM306.44,23.38c-22.52,22.93-45.73,46.58-69.25,70.53.61.52,1.74,1.33,2.7,2.3,15.45,15.42,30.87,30.87,46.34,46.28,1.41,1.41,2.25,2.49,1.35,4.76-12.5,31.51-29.57,60.11-53.27,84.54-24.56,25.32-53.76,43.44-86.59,56.01-2.59.99-4.1.76-6.08-1.24-15.25-15.44-30.66-30.73-45.96-46.13-.93-.94-1.33-2.41-1.82-3.32-24.46,24.46-47.81,47.81-71.28,71.28.29.34.74.93,1.26,1.45,11.46,11.47,22.84,23.03,34.42,34.38,16.38,16.04,36.29,22.55,58.97,21.39,25.46-1.3,49.3-8.72,71.82-20.14,62.76-31.82,111.36-78.87,147.05-139.26,16.07-27.2,27.22-56.26,28.99-88.29,1.12-20.23-3.3-39.1-17.1-54.16-12.86-14.04-27.29-26.63-41.55-40.36Z"/>
  </g>
</svg>