<?xml version="1.0" encoding="UTF-8"?>
<svg id="Calque_2" data-name="Calque 2" xmlns="http://www.w3.org/2000/svg" viewBox="0 0 383.15 383.74">
  <g id="Calque_1-2" data-name="Calque 1">
    <path d="m0,143.46c1.44-7.44,2.37-15.03,4.4-22.31C21.31,60.47,59.92,20.47,121,5.06c83-20.94,160.67,25.33,187.61,97.56,20.58,55.18,12.5,107.04-22.27,154.65-.88,1.2-1.81,2.36-3.73,4.82,1.3.75,2.85,1.25,3.87,2.27,30.22,30.13,60.37,60.33,90.59,90.45,5.11,5.1,7.5,10.82,5.17,17.92-2.08,6.33-7.06,9.35-13.12,11.01h-4.49c-5.16-1.57-8.96-5-12.69-8.75-29.32-29.43-58.73-58.77-88.08-88.17-.96-.96-1.59-2.24-2.41-3.41-1.79,1.29-2.8,1.98-3.78,2.72-37.94,28.74-80.42,39.17-127.26,30.96-62.07-10.87-112.7-59.36-126.68-120.92-1.49-6.54-2.5-13.18-3.73-19.78,0-10.98,0-21.96,0-32.94Zm32.02,16.7c.07,70.56,57.05,127.71,127.4,127.76,70.73.05,128.04-57.2,128.09-127.95.05-70.26-57.29-127.51-127.69-127.49-70.75.02-127.87,57.09-127.81,127.68Z"/>
  </g>
</svg>