<?xml version="1.0" encoding="UTF-8"?>
<svg id="Calque_2" data-name="Calque 2" xmlns="http://www.w3.org/2000/svg" viewBox="0 0 383.3 383.3">
  <g id="Calque_1-2" data-name="Calque 1">
    <path d="m58.39,0C147.21,0,236.04,0,324.87,0c.68.23,1.35.58,2.05.68,32.18,4.61,56.24,31.99,56.29,64.67.12,84.19.13,168.39,0,252.58-.06,36.09-29.2,65.22-65.26,65.27-84.19.13-168.39.11-252.58,0-30.36-.04-56.52-20.96-63.59-50.42C1.13,330.16.59,327.51,0,324.87,0,236.04,0,147.21,0,58.39c.23-.68.58-1.35.68-2.05C4.52,29.58,24.65,7.61,50.82,1.66,53.34,1.08,55.86.55,58.39,0Zm313.64,191.5c0-41.78.06-83.57-.02-125.35-.05-30.84-24.03-54.89-54.78-54.9-83.69-.05-167.39-.05-251.08,0-30.8.02-54.88,24.02-54.9,54.77-.06,83.69-.05,167.39,0,251.08.02,30.81,24.01,54.89,54.77,54.91,83.69.06,167.39.04,251.08-.03,3.84,0,7.75-.34,11.5-1.14,25.75-5.51,43.37-27.26,43.41-53.61.07-41.91.02-83.82.02-125.73Z"/>
    <path d="m191.66,83.97c59.22.03,107.66,48.49,107.63,107.69-.03,59.21-48.51,107.66-107.7,107.63-59.2-.03-107.67-48.52-107.63-107.7.04-59.23,48.49-107.65,107.7-107.62Zm96.41,107.56c-.08-53.06-43.51-96.4-96.54-96.34-53.04.07-96.41,43.53-96.35,96.53.07,53.02,43.54,96.41,96.53,96.34,53.03-.06,96.43-43.54,96.35-96.53Z"/>
    <path d="m305.57,107.15c-16.48-.03-29.57-13.27-29.46-29.79.1-16.2,13.44-29.44,29.61-29.38,16.3.06,29.7,13.61,29.56,29.89-.15,16.21-13.44,29.31-29.7,29.28Zm.15-11.22c10.09-.03,18.33-8.25,18.33-18.3,0-9.99-8.29-18.35-18.3-18.43-10.19-.07-18.48,8.29-18.42,18.58.06,10.15,8.19,18.18,18.38,18.15Z"/>
    <path d="m190.27,114.01c17.1.2,31.72,4.48,44.81,13.52,1.65,1.14,3.22,3.31,3.52,5.21.24,1.5-1.18,4.25-2.51,4.76-1.87.72-4.79.61-6.47-.43-7.14-4.45-14.57-8.05-22.78-10.03-38.69-9.35-77.35,18.15-81.23,57.76-1.54,15.75,2.15,30.14,10.69,43.36.41.63.87,1.22,1.24,1.87,1.74,3.04,1.15,6.14-1.49,7.91-2.59,1.74-5.77,1.14-7.85-1.76-5.19-7.26-8.94-15.24-11.31-23.84-12.52-45.52,17.77-91.34,64.55-97.63,3.33-.45,6.71-.52,8.83-.68Z"/>
    <path d="m269.42,191.19c-1.38,30.7-14.3,54.33-41.22,68.67-26.84,14.3-53.68,12.39-79.49-3.67-.42-.26-.83-.55-1.23-.84-3.16-2.33-3.96-5.28-2.2-8.04,1.87-2.91,5.09-3.48,8.47-1.21,9.69,6.52,20.26,10.46,31.93,11.63,33.24,3.34,64.91-20.25,71.08-53.04,3.39-18.01,0-34.64-10.01-49.95-.14-.21-.29-.41-.42-.62-2.37-3.7-2.03-6.87.94-8.82,2.85-1.87,5.86-1.04,8.25,2.42,6.4,9.25,10.6,19.43,12.44,30.52.73,4.41,1.02,8.9,1.47,12.93Z"/>
  </g>
</svg>