<?xml version="1.0" encoding="UTF-8"?>
<svg id="Calque_2" data-name="Calque 2" xmlns="http://www.w3.org/2000/svg" viewBox="0 0 338.4 338.54">
  <g id="Calque_1-2" data-name="Calque 1">
    <path d="m253.12,9V.02c1.22,0,2.4,0,3.58,0,11.6,0,23.2-.04,34.81,0,26.03.11,46.83,20.84,46.85,46.89.05,81.62.06,163.25,0,244.87-.02,25.82-20.84,46.68-46.65,46.71-81.71.07-163.43.07-245.14,0-25.58-.02-46.39-20.92-46.54-46.45-.06-10.83-.01-21.66-.01-32.7h8.98c0,1.1,0,2.29,0,3.47,0,9.49-.04,18.97,0,28.46.12,21.62,16.58,38.22,38.16,38.24,81.34.06,162.68.06,244.02,0,21.62-.01,38.17-16.56,38.19-38.18.06-81.37.06-162.75,0-244.12-.02-21.65-16.55-38.07-38.18-38.19-11.35-.06-22.71-.01-34.06-.01-1.22,0-2.44,0-4.01,0Z"/>
    <path d="m184.32,141.83c15.84-11.17,33.04-11.89,50.66-9.12,20.42,3.2,33.09,16.08,36.62,37.47,1.45,8.82,2.03,17.85,2.14,26.8.29,23.2.1,46.41.1,69.62,0,6.16-1.23,7.37-7.49,7.37-11.6,0-23.2.02-34.8,0-5.44,0-6.83-1.42-6.84-6.89-.02-21.83.12-43.67-.14-65.5-.07-5.55-.84-11.22-2.26-16.58-2.1-7.95-7.06-11.27-15.39-11.58-9.15-.34-15.72,2.82-17.99,10.34-1.91,6.34-2.87,13.17-2.98,19.81-.36,21.08-.13,42.17-.14,63.26,0,6.03-1.13,7.15-7.22,7.16-11.22,0-22.45.01-33.67,0-5.56,0-6.97-1.36-6.97-6.76-.01-43.05-.01-86.09,0-129.14,0-5.33,1.35-6.72,6.61-6.73,10.6-.04,21.2-.02,31.8-.01,6.83,0,7.73.9,7.82,7.72,0,.73.06,1.45.12,2.79Zm-37.06-1.3v124.18h29.59c0-1.64,0-3,0-4.36,0-18.47-.04-36.94.03-55.41.02-4.36.19-8.74.62-13.08,1.91-19.4,14.07-29.29,33.33-27.12,8.3.94,14.42,5.24,18.17,12.72,3.61,7.19,4.64,14.95,4.65,22.89.03,19.97.03,39.94.04,59.91,0,1.45,0,2.91,0,4.44h31c.07-1.15.18-2.01.18-2.87,0-22.59.24-45.18-.15-67.77-.15-8.68-1.1-17.45-2.82-25.96-2.65-13.17-10.72-22-23.94-25.54-9.28-2.49-18.76-2.87-28.21-1.43-10.53,1.6-19.92,5.37-25.91,15.13-.77,1.26-3.85,2.02-5.47,1.58-1.35-.37-2.86-2.77-3.02-4.4-.42-4.26-.14-8.59-.14-12.9h-27.96Z"/>
    <path d="m9,237.98H.02v-3.93c0-62.16-.02-124.31,0-186.47C.04,20.78,20.65.04,47.35.03c65.25-.04,130.5-.01,195.75-.01,1.12,0,2.23,0,3.65,0v8.98h-4.26c-64.38,0-128.76.33-193.13-.17-22.92-.18-40.76,17.45-40.55,40.73.55,61.28.19,122.56.19,183.85,0,1.47,0,2.94,0,4.58Z"/>
    <path d="m64.55,202.62c0-21.33,0-42.66,0-63.99,0-6.05,1.21-7.3,7.17-7.31,13.84-.02,27.68-.02,41.52,0,5.82,0,7.12,1.28,7.12,6.98,0,42.91,0,85.82,0,128.72,0,5.53-1.37,6.93-6.8,6.94-14.09.02-28.18.02-42.27,0-5.39,0-6.74-1.42-6.74-6.98-.01-21.45,0-42.91,0-64.36Zm46.56,62.16v-124.12h-37.3v124.12h37.3Z"/>
    <path d="m120.34,92.33c.05,15.4-12.74,28.17-28.11,28.06-15.08-.11-27.53-12.59-27.66-27.74-.13-15.21,12.41-27.9,27.73-28.05,15.19-.15,27.99,12.52,28.04,27.73Zm-27.7-18.74c-10.43-.05-19.15,8.64-19.07,19,.08,10.29,8.62,18.77,18.89,18.77,10.27,0,18.72-8.41,18.88-18.79.16-10.11-8.53-18.93-18.71-18.98Z"/>
    <path d="m.23,244.33h8.5v8.57H.23v-8.57Z"/>
  </g>
</svg>