<?xml version="1.0" encoding="UTF-8"?>
<svg id="Calque_2" data-name="Calque 2" xmlns="http://www.w3.org/2000/svg" viewBox="0 0 383.41 383.27">
  <g id="Calque_1-2" data-name="Calque 1">
    <path d="m0,318.89C0,244.78,0,170.67,0,96.56c.23-.83.56-1.65.69-2.49,4.03-25.37,17.6-43.77,40.55-55.19,9.99-4.97,20.7-7.04,31.86-6.9,7.45.1,14.91.02,22.74.02,0-1.74,0-3.08,0-4.42,0-6.49-.09-12.97.04-19.46.09-4.74,3.63-8.16,8.04-8.1,4.33.06,7.65,3.29,7.76,7.93.15,6.23.06,12.47.07,18.71,0,1.68,0,3.37,0,5.05h159.86c0-1.63,0-2.97,0-4.32.02-6.61-.07-13.22.09-19.83.09-3.79,2.71-6.66,6.26-7.41,3.41-.72,7.3,1.09,8.66,4.39.64,1.55.84,3.38.86,5.09.09,7.32.04,14.64.04,22.4,8.73,0,17.06-.15,25.38.02,39.09.8,70.31,32.24,70.4,71.35.17,69.48.14,138.96,0,208.44-.06,31.96-21.35,59.76-52.06,68.55-4.04,1.16-8.18,1.92-12.28,2.86H64.39c-.69-.23-1.36-.56-2.06-.68-30.2-5.16-50.06-22.31-59.46-51.44C1.58,327.17.94,322.98,0,318.89Zm16.09-174.98c-.06,1.39-.17,2.61-.17,3.83,0,54.13-.03,108.27.04,162.4,0,3.72.26,7.51.97,11.15,5.36,27.63,27.87,46.03,56.4,46.05,78.85.05,157.69.03,236.54-.02,3.73,0,7.51-.22,11.17-.9,27.76-5.2,46.37-27.84,46.4-56.49.05-54.01.02-108.02.02-162.03v-3.99H16.09Zm351.29-16.31c0-8.82.32-17.18-.06-25.51-1.37-30.36-25.29-54.08-55-54.14-80.46-.15-160.92-.12-241.38,0-24.57.04-46.44,17.24-52.98,40.93-2.74,9.92-1.92,20.04-2.06,30.12-.04,2.82,0,5.64,0,8.6h351.47Z"/>
    <path d="m104,191.64c5.36,0,10.72-.08,16.08.02,13.09.24,23.44,10.52,23.63,23.62.15,10.59.1,21.19.02,31.79-.1,13.68-9.87,23.96-23.63,24.39-10.84.34-21.7.33-32.54,0-13.58-.41-23.36-10.38-23.67-23.99-.24-10.59-.24-21.19,0-31.78.32-14.07,10.64-23.94,24.77-24.03,5.11-.03,10.22,0,15.34,0Zm-.43,63.8c5.24,0,10.48.08,15.71-.02,5.13-.1,8.38-2.95,8.48-8,.2-10.59.19-21.19,0-31.79-.08-4.71-3.13-7.88-7.77-7.97-10.72-.22-21.45-.22-32.16-.02-4.89.09-7.79,3.31-7.84,8.22-.1,10.47-.11,20.94,0,31.41.06,5.12,3.07,8.02,8.25,8.14,5.11.12,10.22.03,15.34.02Z"/>
  </g>
</svg>