<?xml version="1.0" encoding="UTF-8"?>
<svg id="Calque_2" data-name="Calque 2" xmlns="http://www.w3.org/2000/svg" viewBox="0 0 383.32 335.23">
  <g id="Calque_1-2" data-name="Calque 1">
    <path d="m383.32,287.74c-1.74-.06-3.48-.18-5.22-.18-108.27,0-216.54,0-324.82,0-1.6,0-3.2,0-5.36,0v-4.21c0-80.59-.01-161.19,0-241.78C47.93,17.18,64.91.06,89.31.04c84.2-.06,168.4-.05,252.59,0,21.48.01,36.35,12.38,40.87,33.67.07.34.36.63.55.94v253.09Zm-319.27-16.55h303.14V56.69c-.52-.46-1.05-.91-1.57-1.37-.59,1.24-.9,2.75-1.81,3.67-31.36,31.46-62.74,62.88-94.18,94.26-30.1,30.05-74.17,30-104.26-.05-32.75-32.71-65.5-65.42-98.25-98.13-.83-.83-1.72-1.6-3.07-2.83v218.94ZM215.83,15.93c-42.41,0-84.82,0-127.24,0-9.37,0-16.47,4.04-21.49,11.96-1.41,2.22-1.07,3.55.77,5.39,36.56,36.48,73,73.08,109.55,109.57,21.93,21.88,57.95,22.01,79.91.17,35.74-35.54,71.28-71.27,106.99-106.84,1.99-1.98,2.13-3.61,1-5.89-4.71-9.55-12.36-14.36-23.01-14.36-42.16,0-84.32,0-126.49,0Z"/>
    <path d="m15.7,319.43h287.47v15.8H.18c-.06-1.33-.17-2.54-.17-3.75C0,250.5,0,169.51,0,88.52c0-13.03,5.09-23.62,15.7-32.51v263.41Z"/>
  </g>
</svg>