<?xml version="1.0" encoding="UTF-8"?>
<svg id="Calque_2" data-name="Calque 2" xmlns="http://www.w3.org/2000/svg" viewBox="0 0 383.05 383.28">
  <g id="Calque_1-2" data-name="Calque 1">
    <path d="m303.24,383.28v-63.82c-10.53,0-21.07,0-31.61,0s-21.13,0-31.86,0v-16.03h63.58v-63.64h15.99v63.39h63.7v16.24h-62.85c-.34.62-.56.82-.56,1.03.01,20.94.04,41.88.06,62.82h-16.47Z"/>
    <path d="m63.64,383.28c.06-18.09.14-36.17.19-54.26.04-13.85,5.14-25.26,16.3-33.68,6.66-5.02,14.25-7.78,22.59-7.81,27.45-.11,54.91-.11,82.36,0,7.4.03,14.23,2.42,20.32,6.65,1.04.72,2.07,2.28,2.1,3.48.19,7.72.1,15.45.1,24.24-.81-1.55-1.21-2.17-1.48-2.84-4.13-10.08-11.76-15.5-22.5-15.6-26.58-.24-53.16-.25-79.74,0-13.83.13-23.79,10.33-23.88,24.08-.12,18.58.08,37.17.14,55.75h-16.47Z"/>
    <path d="m0,162.44c1.92-8.21,4.88-15.89,10.91-22.08,7.46-7.66,16.41-12.31,27.16-12.39,27.81-.2,55.63-.1,83.45-.06,2.21,0,4.42.46,6.71,1.36-1.9.54-3.9.85-5.69,1.65-7.81,3.49-15.52,7.19-23.34,10.67-2.17.97-4.55,2.02-6.85,2.04-16.96.17-33.93.07-50.89.1-15.4.02-25.48,10.1-25.54,25.58-.06,16.59-.01,33.17-.01,49.76,0,1.35,0,2.71,0,4.76H0v-61.39Z"/>
    <path d="m143.4,255.44c-26.56-.2-47.78-21.83-47.56-48.48.22-25.97,22.05-47.46,48.08-47.32,26.46.14,47.92,21.9,47.75,48.4-.17,26.27-21.89,47.6-48.26,47.4Zm.32-79.69c-17.59.01-31.89,14.25-31.95,31.79-.06,17.44,14.35,31.92,31.82,31.99,17.67.07,32.24-14.47,32.13-32.05-.11-17.57-14.41-31.75-32.01-31.73Z"/>
    <path d="m32.03,47.95C32.01,21.56,53.42.04,79.73,0c26.47-.04,48.23,21.71,48.09,48.05-.14,26.32-21.72,47.79-48.01,47.76-26.36-.03-47.77-21.48-47.79-47.87Zm79.69-.04c0-17.59-14.23-31.91-31.77-31.98-17.46-.06-31.94,14.31-32.02,31.79-.08,17.66,14.43,32.24,32.02,32.17,17.54-.07,31.77-14.39,31.77-31.98Z"/>
    <path d="m255.49,48.11c-.12,26.57-21.71,47.88-48.32,47.71-26.02-.17-47.49-21.85-47.47-47.92C159.7,21.48,181.46-.1,207.94,0c26.31.1,47.66,21.71,47.54,48.11Zm-79.69-.12c.04,17.57,14.36,31.91,31.85,31.9,17.49-.01,31.9-14.39,31.94-31.88.04-17.67-14.51-32.21-32.1-32.08-17.57.14-31.73,14.46-31.69,32.05Z"/>
    <path d="m159.22,128.58c2.91-.25,5.82-.72,8.73-.72,26.31-.06,52.63-.17,78.94,0,23.64.16,40.54,17.4,40.62,41.12.04,12.69,0,25.38,0,38.32h-15.91c0-1.91,0-3.74,0-5.56,0-10.72.03-21.45,0-32.17-.06-15.91-10.07-25.83-26.02-25.84-17.08-.01-34.17.02-51.25-.05-1.53,0-3.36-.23-4.55-1.06-8.89-6.25-18.63-10.5-29.2-12.91-.46-.11-.91-.3-1.36-.45,0-.22,0-.45,0-.67Z"/>
  </g>
</svg>